<svg width="36" height="36" viewBox="0 0 36 36" fill="none" xmlns="http://www.w3.org/2000/svg">
<path d="M31.7703 19.755C31.8398 19.1925 31.886 18.6075 31.886 18C31.886 17.3925 31.8398 16.8075 31.7472 16.245L35.6584 13.275C36.0056 13.005 36.0981 12.51 35.8899 12.1275L32.1869 5.895C31.9555 5.49 31.4695 5.355 31.0529 5.49L26.4473 7.29C25.4753 6.57 24.457 5.985 23.323 5.535L22.6287 0.765C22.5593 0.315 22.1658 0 21.7029 0H14.2971C13.8342 0 13.4639 0.315 13.3945 0.765L12.7002 5.535C11.5661 5.985 10.5247 6.5925 9.5758 7.29L4.97027 5.49C4.55368 5.3325 4.06767 5.49 3.83624 5.895L0.133295 12.1275C-0.0981388 12.5325 -0.00556486 13.005 0.36473 13.275L4.27596 16.245C4.18339 16.8075 4.11396 17.415 4.11396 18C4.11396 18.585 4.16025 19.1925 4.25282 19.755L0.341586 22.725C-0.00556541 22.995 -0.0981388 23.49 0.110152 23.8725L3.8131 30.105C4.04453 30.51 4.53054 30.645 4.94712 30.51L9.55266 28.71C10.5247 29.43 11.543 30.015 12.677 30.465L13.3713 35.235C13.4639 35.685 13.8342 36 14.2971 36H21.7029C22.1658 36 22.5592 35.685 22.6055 35.235L23.2998 30.465C24.4339 30.015 25.4753 29.4075 26.4242 28.71L31.0297 30.51C31.4463 30.6675 31.9323 30.51 32.1638 30.105L35.8667 23.8725C36.0981 23.4675 36.0056 22.995 35.6353 22.725L31.7703 19.755ZM18 24.75C14.1813 24.75 11.057 21.7125 11.057 18C11.057 14.2875 14.1813 11.25 18 11.25C21.8187 11.25 24.943 14.2875 24.943 18C24.943 21.7125 21.8187 24.75 18 24.75Z" fill="black" fill-opacity="0.6"/>
</svg>
